#!OML:ASF F:\VICON\USERDATA\INSTALL\rory3\rory3.ASF
:FULLY-SPECIFIED
:DEGREES
27
root 0.3518005548727725 17.92082755490946 -0.8071341101886507 -1.7957895944862714 -5.122418817757375 -7.345589632125314
lfemur -23.129761774939087 1.5736729914536718 -10.157394886889628
ltibia 51.426285835295204
lfoot -4.344722753666126 0.6598110952608862
ltoes -9.413257187494034
rfemur -6.135721753092498 5.56891434258627 34.3798120632558
rtibia 28.92010601099907
rfoot 1.8550829255873253 -10.670506665783279
rtoes 9.012669221382753
lowerback nan 1.4757294221554007 3.810453353528671
upperback 0.04110528081722582 2.7480651648408436 1.9285091318899596
thorax -6.047205840521869 1.2537716961487064 -1.343896258719073
lowerneck -16.034521176416696 -3.8228674258838278 -1.4932531388504928
upperneck 21.34919960416879 -5.405847261135902 1.4972351514797695
head 9.6621936568525 -2.401355619626139 0.03903509428759602
lclavicle -2.5431237861596594e-15 -2.768825119881861e-15
lhumerus -36.50994320493056 8.724323574506936 82.82026013779304
lradius 22.44895544699443
lwrist 11.15258092724504
lhand -29.16297098801731 17.446477598275237
lfingers nan
lthumb -2.346124704317546 47.34755063462732
rclavicle -2.529846646398946e-15 -2.7586492460423567e-15
rhumerus -24.93846876792548 -17.774123935435284 -73.50650503976253
rradius 29.229376919425146
rwrist 3.927910688706877
rhand -18.535948017788947 nan
rfingers nan
rthumb 7.696001311786449 -4.662338723590594
28
root 0.3604547884022216 17.906095285669373 0.18426165132627226 -2.1522281692601393 -5.524949817648229 -7.497094189682123
lfemur -23.48895739377136 1.3569604553994807 -10.623689532550527
ltibia 44.90869872300807
lfoot -4.815561750109707 0.5885298940586092
ltoes -10.07692805596613
rfemur -7.114990757191099 5.667068637359428 34.433125776666756
rtibia 33.23417507178392
rfoot 1.6886923892091819 -11.679300846922512
rtoes 9.860338644171776
lowerback nan 1.6861979425170448 3.8376984808341623
upperback 0.07745950337755779 2.9837464036943637 1.7879070748911425
thorax -5.87812756128808 1.3231904023949983 -1.5643388652795591
lowerneck -15.786365353503307 -3.772211919858117 -1.4908629584396813
upperneck 21.323916317943116 -5.281801963797646 1.4865909788584748
head 9.695078210641148 -2.3431209095659637 0.058696382031897115
lclavicle -2.5323683032504494e-15 -2.7640618518978055e-15
lhumerus -36.615513322934675 9.063497655157283 82.48357452351406
lradius 23.57379889393629
lwrist 10.9626034201818
lhand -29.463451870553406 17.801805439006163
lfingers nan
lthumb -2.6299228956885856 47.683026231351
rclavicle -2.52461833548977e-15 -2.7568594413878723e-15
rhumerus -24.8189799887218 -17.071497763711385 -73.15524508002242
rradius 31.22988363363779
rwrist 6.161052186054755
rhand -18.470634257474337 nan
rfingers nan
rthumb 7.818251494127356 -4.892983348058458
29
root 0.37397725366666845 17.887346025692132 1.47007295894519 -2.283628379401385 -5.598413828861581 -7.687945891981837
lfemur -23.14541430347401 1.0937585797371123 -10.842169243620132
ltibia 38.054542242404665
lfoot -4.504874472465479 0.353772044010749
ltoes -12.063037342935234
rfemur -8.287327338428682 5.737642283482774 34.48936413403983
rtibia 37.77482885456221
rfoot 0.9623339664539419 -12.968706173081824
rtoes 10.780399743424407
lowerback nan 1.9592788123731382 4.196375007378453
upperback -0.003200408313243794 3.437873695986589 1.6950860264287173
thorax -5.810454410821361 1.4988061962864296 -1.8532671769462634
lowerneck -15.627988066811156 -3.785612668843948 -1.6105789304877525
upperneck 21.580666741722013 -5.305727485498319 1.4698951244114717
head 9.815764735070346 -2.3600549198311387 0.03040260082720908
lclavicle -2.5390613378086087e-15 -2.768237159646142e-15
lhumerus -36.40614324930333 8.412373009850235 82.45642815443492
lradius 24.602508784746714
lwrist 10.674400254811228
lhand -29.52125393845635 18.234328356087794
lfingers nan
lthumb -2.6292452864020324 48.260934140004046
rclavicle -2.5347125955153337e-15 -2.7627956935519995e-15
rhumerus -24.774143997906158 -16.456420229238756 -72.8829439427797
rradius 32.77773019308516
rwrist 5.749295924733586
rhand -18.207190486758382 nan
rfingers nan
rthumb 8.114954007742828 -6.085911741569658
30
root 0.38126358788895226 17.871264134605607 2.166503274119659 -2.3169410004260946 -5.4898098046535955 -7.858360262554621
lfemur -21.25025663066838 0.6291545393729359 -11.838729502231363
ltibia 31.15763980261045
lfoot -3.882883951608658 -1.1103082826846455
ltoes -12.52008503075179
rfemur -9.042301551223572 5.645319490297524 34.447186726772415
rtibia 42.818522729701336
rfoot 0.21824501513383687 -13.689125108542546
rtoes 10.069549485202248
lowerback nan 2.0696106756346078 4.43842208991154
upperback -0.03788088272763871 3.428225144621008 1.6775058162111534
thorax -5.755897582033122 1.464083119393412 -2.1273809576998355
lowerneck -15.540885704212368 -3.8265688491507666 -1.6154573757503174
upperneck 21.63090335575686 -5.393517934860371 1.6012954553345622
head 9.793780852959207 -2.3900493400530736 0.0824526609116355
lclavicle -2.5435494696334958e-15 -2.7717948280256495e-15
lhumerus -35.973800948397454 7.74372424946699 82.69143254039955
lradius 25.731802490491713
lwrist 10.622265235519436
lhand -29.63642205844708 18.77550252272109
lfingers nan
lthumb -2.855404040391348 48.666773871227704
rclavicle -2.5379780565866945e-15 -2.7654589378830767e-15
rhumerus -24.890639250910237 -15.413468630568978 -73.04328442221443
rradius 33.787636044111515
rwrist 5.242866964036438
rhand -18.095905056774257 nan
rfingers nan
rthumb 8.316251393220325 -6.982410495897887
31
root 0.38980682519657084 17.85706608325124 3.474012382277926 -2.4070002439263973 -5.518161393991152 -7.772616066842813
lfemur -18.9506697434584 0.35163851470889806 -12.19640047867827
ltibia 25.343956345670236
lfoot -3.208904130524567 -2.6968549800514103
ltoes -13.139621281670706
rfemur -9.577738037728366 5.483958425159392 34.19517421266099
rtibia 47.43272363949448
rfoot -0.9323561552118109 -13.535535966758257
rtoes 9.873545320885226
lowerback nan 2.027308664667461 4.420927937745629
upperback 0.008942400463324895 3.3822774634365844 1.6608977680233126
thorax -5.704346533024221 1.487179422818097 -2.0271993234150987
lowerneck -15.734407540667876 -3.8503587763462135 -1.664561176813765
upperneck 21.873587395538994 -5.460985982976325 1.6732141168143635
head 9.989154094165986 -2.399968812804211 0.07617766393257822
lclavicle -2.535607136196319e-15 -2.7674855510391313e-15
lhumerus -35.38801838765423 6.668340473094593 82.82062447737795
lradius 27.070365564814733
lwrist 10.80769529161123
lhand -30.083364904654506 20.321340044103128
lfingers nan
lthumb -3.291264659018716 50.46842387032648
rclavicle -2.5376479174592456e-15 -2.7654997058030976e-15
rhumerus -25.24985079462399 -14.192654169835219 -73.59256571203946
rradius 33.91360003716421
rwrist 5.018930108250887
rhand -18.04454464557645 nan
rfingers nan
rthumb 8.411748732476147 -6.810486887053895
